<?xml version="1.0" encoding="UTF-8"?>
<svg version="1.1" xmlns="http://www.w3.org/2000/svg" width="32" height="30">
<path d="M0 0 C10.56 0 21.12 0 32 0 C32 9.9 32 19.8 32 30 C21.44 30 10.88 30 0 30 C0 20.1 0 10.2 0 0 Z " fill="#FF5104" transform="translate(0,0)"/>
<path d="M0 0 C0.33 0 0.66 0 1 0 C1 5.61 1 11.22 1 17 C-5.93 17 -12.86 17 -20 17 C-20 9 -20 9 -19 8 C-15.76660097 7.79448735 -12.53498436 7.68044632 -9.296875 7.57421875 C-5.43260951 6.90117725 -3.74902868 5.75404515 -1 3 C-0.67 2.01 -0.34 1.02 0 0 Z " fill="#FFF9F6" transform="translate(31,13)"/>
<path d="M0 0 C2.97 0 5.94 0 9 0 C9.02683987 2.97922593 9.04676037 5.95821295 9.0625 8.9375 C9.07087891 9.78763672 9.07925781 10.63777344 9.08789062 11.51367188 C9.09111328 12.32255859 9.09433594 13.13144531 9.09765625 13.96484375 C9.10289307 14.7137085 9.10812988 15.46257324 9.11352539 16.23413086 C9 18 9 18 8 19 C5.36 19 2.72 19 0 19 C0 12.73 0 6.46 0 0 Z " fill="#FFFAF8" transform="translate(0,0)"/>
<path d="M0 0 C2.64 0 5.28 0 8 0 C8 2.31 8 4.62 8 7 C7.236875 6.21625 6.47375 5.4325 5.6875 4.625 C3.09108195 1.92742283 3.09108195 1.92742283 0 0 Z " fill="#FFEEE7" transform="translate(24,0)"/>
</svg>
