<?xml version="1.0" encoding="UTF-8"?>
<svg version="1.1" xmlns="http://www.w3.org/2000/svg" width="32" height="30">
<path d="M0 0 C16.20535714 -0.80357143 16.20535714 -0.80357143 20.5 2.5625 C22.74824588 5.05793522 23.01777563 6.10132107 23.625 9.5625 C22.78125255 14.203111 21.61715783 16.81275561 17.78125 19.62890625 C14.49527387 21.24881864 12.32718306 21.30748955 8.6875 21.1875 C7.08455078 21.14689453 7.08455078 21.14689453 5.44921875 21.10546875 C4.64097656 21.07066406 3.83273437 21.03585938 3 21 C2.67 23.97 2.34 26.94 2 30 C-1.63 30 -5.26 30 -9 30 C-9 26.37 -9 22.74 -9 19 C-5.04 18.505 -5.04 18.505 -1 18 C-0.505 9.09 -0.505 9.09 0 0 Z " fill="#FF5509" transform="translate(9,0)"/>
</svg>
