<?xml version="1.0" encoding="UTF-8"?>
<svg version="1.1" xmlns="http://www.w3.org/2000/svg" width="512" height="512">
<path d="M0 0 C9.60868976 8.7761679 16.77660456 19.17141893 17.53515625 32.54296875 C17.93645529 48.77778044 14.7073264 60.15720937 4.1640625 72.9765625 C4.82180664 73.01177002 5.47955078 73.04697754 6.15722656 73.08325195 C13.40630506 73.59073852 19.97479561 75.0529188 26.9140625 77.1640625 C27.96464844 77.47867432 29.01523437 77.79328613 30.09765625 78.11743164 C59.78004387 87.16955585 87.11570376 102.47121679 109.7734375 123.73828125 C111.93661752 125.76361156 114.15168861 127.68890671 116.4140625 129.6015625 C120.40387653 133.09264978 123.79327264 136.89134704 127.1640625 140.9765625 C127.58671387 141.47623535 128.00936523 141.9759082 128.44482422 142.49072266 C157.27767023 176.64254131 176.94341437 221.54659053 177.40234375 266.69140625 C177.41218292 267.49614883 177.42202209 268.30089142 177.43215942 269.13002014 C177.97906892 325.53387411 161.4943726 375.25721516 124.1640625 417.9765625 C123.44089844 418.82347656 122.71773438 419.67039062 121.97265625 420.54296875 C117.69582684 425.48936049 113.1647764 429.77664435 108.1640625 433.9765625 C107.25269531 434.78738281 106.34132813 435.59820312 105.40234375 436.43359375 C84.50537132 454.90138987 59.54103122 468.16833069 33.1640625 476.9765625 C32.42446289 477.22486816 31.68486328 477.47317383 30.92285156 477.72900391 C25.72875414 479.42549159 20.49745427 480.79287873 15.1640625 481.9765625 C13.84365967 482.27071045 13.84365967 482.27071045 12.49658203 482.57080078 C-15.99383373 488.58560804 -47.46768596 488.41883944 -75.8359375 481.9765625 C-76.67237793 481.79464355 -77.50881836 481.61272461 -78.37060547 481.42529297 C-113.46952173 473.63404375 -149.2408064 455.82513749 -174.2421875 429.60546875 C-175.91540765 427.82300931 -175.91540765 427.82300931 -178.3984375 425.9765625 C-181.99861405 423.02257148 -184.8367629 419.52636681 -187.8359375 415.9765625 C-188.5784375 415.13351562 -189.3209375 414.29046875 -190.0859375 413.421875 C-197.51504697 404.82601437 -203.75594379 395.56221733 -209.8359375 385.9765625 C-210.21492188 385.38681641 -210.59390625 384.79707031 -210.984375 384.18945312 C-228.39478783 356.79750663 -238.7548797 321.47628152 -239.07421875 289.0078125 C-239.08405792 288.17809433 -239.09389709 287.34837616 -239.10403442 286.49351501 C-239.63069396 230.53349151 -223.32719939 180.2077812 -185.8359375 137.9765625 C-184.96839844 136.9865625 -184.10085937 135.9965625 -183.20703125 134.9765625 C-178.37677735 129.54897949 -173.45829356 124.57157775 -167.8359375 119.9765625 C-167.34061523 119.55826172 -166.84529297 119.13996094 -166.33496094 118.70898438 C-140.26910553 96.6991781 -101.08127807 73.14164606 -65.8359375 72.9765625 C-66.43921875 72.17734375 -67.0425 71.378125 -67.6640625 70.5546875 C-76.74881864 58.20533409 -81.16279736 45.91193025 -79.1484375 30.4140625 C-77.30674539 20.17570835 -73.68198106 12.78396537 -66.8359375 4.9765625 C-66.31257812 4.3475 -65.78921875 3.7184375 -65.25 3.0703125 C-48.94364474 -15.06553628 -18.09741581 -15.02788945 0 0 Z " fill="#9A6143" transform="translate(286.8359375,18.0234375)"/>
<path d="M0 0 C9.60868976 8.7761679 16.77660456 19.17141893 17.53515625 32.54296875 C17.93645529 48.77778044 14.7073264 60.15720937 4.1640625 72.9765625 C4.82180664 73.01177002 5.47955078 73.04697754 6.15722656 73.08325195 C13.40630506 73.59073852 19.97479561 75.0529188 26.9140625 77.1640625 C27.96464844 77.47867432 29.01523437 77.79328613 30.09765625 78.11743164 C59.78004387 87.16955585 87.11570376 102.47121679 109.7734375 123.73828125 C111.93661752 125.76361156 114.15168861 127.68890671 116.4140625 129.6015625 C120.40387653 133.09264978 123.79327264 136.89134704 127.1640625 140.9765625 C127.58671387 141.47623535 128.00936523 141.9759082 128.44482422 142.49072266 C157.27767023 176.64254131 176.94341437 221.54659053 177.40234375 266.69140625 C177.41218292 267.49614883 177.42202209 268.30089142 177.43215942 269.13002014 C177.97906892 325.53387411 161.4943726 375.25721516 124.1640625 417.9765625 C123.44089844 418.82347656 122.71773438 419.67039062 121.97265625 420.54296875 C117.69582684 425.48936049 113.1647764 429.77664435 108.1640625 433.9765625 C107.25269531 434.78738281 106.34132813 435.59820312 105.40234375 436.43359375 C84.50537132 454.90138987 59.54103122 468.16833069 33.1640625 476.9765625 C32.42446289 477.22486816 31.68486328 477.47317383 30.92285156 477.72900391 C25.72875414 479.42549159 20.49745427 480.79287873 15.1640625 481.9765625 C13.84365967 482.27071045 13.84365967 482.27071045 12.49658203 482.57080078 C-15.99383373 488.58560804 -47.46768596 488.41883944 -75.8359375 481.9765625 C-76.67237793 481.79464355 -77.50881836 481.61272461 -78.37060547 481.42529297 C-113.46952173 473.63404375 -149.2408064 455.82513749 -174.2421875 429.60546875 C-175.91540765 427.82300931 -175.91540765 427.82300931 -178.3984375 425.9765625 C-181.99861405 423.02257148 -184.8367629 419.52636681 -187.8359375 415.9765625 C-188.5784375 415.13351562 -189.3209375 414.29046875 -190.0859375 413.421875 C-197.51504697 404.82601437 -203.75594379 395.56221733 -209.8359375 385.9765625 C-210.21492188 385.38681641 -210.59390625 384.79707031 -210.984375 384.18945312 C-228.39478783 356.79750663 -238.7548797 321.47628152 -239.07421875 289.0078125 C-239.08405792 288.17809433 -239.09389709 287.34837616 -239.10403442 286.49351501 C-239.63069396 230.53349151 -223.32719939 180.2077812 -185.8359375 137.9765625 C-184.96839844 136.9865625 -184.10085937 135.9965625 -183.20703125 134.9765625 C-178.37677735 129.54897949 -173.45829356 124.57157775 -167.8359375 119.9765625 C-167.34061523 119.55826172 -166.84529297 119.13996094 -166.33496094 118.70898438 C-140.26910553 96.6991781 -101.08127807 73.14164606 -65.8359375 72.9765625 C-66.43921875 72.17734375 -67.0425 71.378125 -67.6640625 70.5546875 C-76.74881864 58.20533409 -81.16279736 45.91193025 -79.1484375 30.4140625 C-77.30674539 20.17570835 -73.68198106 12.78396537 -66.8359375 4.9765625 C-66.31257812 4.3475 -65.78921875 3.7184375 -65.25 3.0703125 C-48.94364474 -15.06553628 -18.09741581 -15.02788945 0 0 Z M-72.8359375 106.9765625 C-73.56312988 107.16911621 -74.29032227 107.36166992 -75.03955078 107.56005859 C-79.71796129 108.83540757 -84.27173889 110.33961363 -88.8359375 111.9765625 C-90.01671875 112.39421875 -91.1975 112.811875 -92.4140625 113.2421875 C-113.57327767 121.21124256 -132.1802491 132.73536993 -148.8359375 147.9765625 C-149.59777344 148.62496094 -150.35960937 149.27335937 -151.14453125 149.94140625 C-163.13899871 160.28920735 -172.28100549 172.74241353 -180.8359375 185.9765625 C-181.53460938 187.0490625 -182.23328125 188.1215625 -182.953125 189.2265625 C-193.25235239 206.10240496 -200.14015932 225.59621561 -203.8359375 244.9765625 C-204.01922607 245.90452637 -204.20251465 246.83249023 -204.39135742 247.78857422 C-206.09490975 257.39591374 -206.19195147 266.87767944 -206.1484375 276.6015625 C-206.14661469 277.4444986 -206.14479187 278.28743469 -206.14291382 279.15591431 C-206.09849949 291.33889562 -205.6936512 303.08442319 -202.8359375 314.9765625 C-202.66964844 315.72744141 -202.50335938 316.47832031 -202.33203125 317.25195312 C-192.01942002 363.50592421 -163.19182039 402.17389066 -123.59765625 427.63671875 C-84.51584054 452.19237181 -36.80894361 459.927034 8.1640625 449.91015625 C32.73005539 444.00761223 56.3199476 433.76068697 76.1640625 417.9765625 C76.97447998 417.33533447 76.97447998 417.33533447 77.80126953 416.68115234 C115.03864628 386.90228424 138.617181 344.79332942 144.3515625 297.3515625 C148.2920111 260.81641107 140.40045918 225.23933831 123.1640625 192.9765625 C122.62136719 191.95046875 122.07867187 190.924375 121.51953125 189.8671875 C99.89108476 150.92545903 61.87399269 121.64127189 19.3125 109.21875 C17.32799318 108.67065578 15.34102569 108.13138398 13.3515625 107.6015625 C12.45800049 107.36276367 11.56443848 107.12396484 10.64379883 106.87792969 C-3.29377369 103.37738898 -17.1067778 102.56786669 -31.3984375 102.6015625 C-32.23054749 102.60177399 -33.06265747 102.60198547 -33.91998291 102.60220337 C-47.23156012 102.63587892 -59.92407841 103.49866807 -72.8359375 106.9765625 Z " fill="#FEAE3E" transform="translate(286.8359375,18.0234375)"/>
<path d="M0 0 C0.66 0 1.32 0 2 0 C2.6732656 2.89444095 3.33880404 5.79030013 4 8.6875 C4.19078125 9.50412109 4.3815625 10.32074219 4.578125 11.16210938 C5.48733916 15.17239326 6.27000098 18.85717252 6 23 C7.5159375 22.9071875 7.5159375 22.9071875 9.0625 22.8125 C15.83310808 22.80045265 22.41717882 24.57514693 29 26 C29.84046875 26.1546875 30.6809375 26.309375 31.546875 26.46875 C58.22493394 31.53173929 84.00982397 51.37125482 99.34155273 73.30273438 C108.05866601 86.32648528 114.38009618 99.75968029 118 115 C118.31710937 116.27230469 118.63421875 117.54460937 118.9609375 118.85546875 C120.48535239 125.37968478 121.34630308 131.30480719 121 138 C121.58265625 138.03738281 122.1653125 138.07476562 122.765625 138.11328125 C129.7343058 138.67209056 136.26455965 140.15990547 143 142 C143 142.66 143 143.32 143 144 C126.62491063 147.85662124 110.21137025 151.49904831 93.76367188 155.03051758 C84.43522883 157.03442525 75.11982314 159.08722362 65.8125 161.1875 C52.92994694 164.08538774 39.97738092 166.5689713 27 169 C26.89075699 169.59647339 26.78151398 170.19294678 26.66896057 170.80749512 C23.06235745 190.34922349 18.82392989 209.72594031 14.47283936 229.11254883 C13.57745971 233.10567052 12.68636384 237.09974775 11.79492188 241.09375 C10.44851682 247.12416141 9.10003505 253.15410335 7.74951172 259.18359375 C5.82266771 267.78677037 3.90731396 276.39247416 2 285 C1.34 285 0.68 285 0 285 C-4.0254055 268.02632724 -7.76403657 250.99884007 -11.37597656 233.93310547 C-13.24648293 225.10890806 -15.14628731 216.29380086 -17.14175415 207.49688721 C-18.09934553 203.2748945 -19.04604182 199.05048349 -19.99279785 194.8260498 C-20.45335647 192.78675675 -20.91952363 190.74872169 -21.39147949 188.71203613 C-22.04997442 185.86832747 -22.68897159 183.02085261 -23.32421875 180.171875 C-23.52470322 179.32999634 -23.72518768 178.48811768 -23.93174744 177.62072754 C-25.01073693 172.6766647 -24.93459758 169.81536198 -23 165 C-23.97006391 162.35689619 -23.97006391 162.35689619 -25.75 160 C-29.68552378 153.99787698 -31 150.33109993 -31 143 C-67.3 143 -103.6 143 -141 143 C-137.38161906 141.19080953 -134.46944944 140.2693075 -130.5625 139.375 C-129.45003906 139.11460937 -128.33757812 138.85421875 -127.19140625 138.5859375 C-124.3616884 138.06640546 -121.86450045 137.88220746 -119 138 C-118.90203125 136.80246094 -118.8040625 135.60492188 -118.703125 134.37109375 C-115.75160898 101.16396753 -101.63379306 73.2939077 -77 51 C-57.48620952 34.86035197 -29.69361525 21.6710199 -4 23 C-3.96261719 22.42894531 -3.92523438 21.85789063 -3.88671875 21.26953125 C-3.29680315 13.99390548 -1.76303958 7.07433492 0 0 Z " fill="#FCB30B" transform="translate(255,153)"/>
<path d="M0 0 C0.67256836 0.32548828 1.34513672 0.65097656 2.03808594 0.98632812 C38.72857717 18.88164407 68.23149008 48.91856714 87 85 C87.34804688 85.66870117 87.69609375 86.33740234 88.0546875 87.02636719 C109.2224943 128.34735848 114.19132241 177.42592202 102.25 222.3125 C101.52794382 224.55087416 100.77456627 226.77924987 100 229 C99.74798828 229.76989258 99.49597656 230.53978516 99.23632812 231.33300781 C89.92115386 259.76257547 75.23121516 284.07751163 55 306 C54.53239258 306.50756836 54.06478516 307.01513672 53.58300781 307.53808594 C27.68909753 335.29620863 -9.76966577 355.29046822 -47 362 C-47.77279297 362.14663086 -48.54558594 362.29326172 -49.34179688 362.44433594 C-89.69685803 369.90857756 -131.16132558 363.6437069 -168 346 C-168.75216797 345.64180176 -169.50433594 345.28360352 -170.27929688 344.91455078 C-187.68453446 336.49328326 -202.82964569 325.0771417 -217 312 C-217.50756836 311.53239258 -218.01513672 311.06478516 -218.53808594 310.58300781 C-249.26005598 281.9242997 -269.94908899 239.58191854 -275 198 C-275.16628906 196.66195312 -275.16628906 196.66195312 -275.3359375 195.296875 C-276.10493058 187.52380979 -276.10187922 179.74241394 -276.125 171.9375 C-276.12967285 170.84937012 -276.1343457 169.76124023 -276.13916016 168.64013672 C-276.05282477 124.60244602 -258.99728531 81.05690526 -230 48 C-229.24976563 47.14019531 -228.49953125 46.28039062 -227.7265625 45.39453125 C-200.87339118 15.1045206 -165.56463889 -5.87446267 -126.00488281 -14.54443359 C-123.94888011 -15.01161589 -121.90918387 -15.52598721 -119.8671875 -16.05078125 C-80.71495233 -25.66087534 -35.64478723 -17.64666685 0 0 Z M-126 2 C-126.72719238 2.19255371 -127.45438477 2.38510742 -128.20361328 2.58349609 C-132.88202379 3.85884507 -137.43580139 5.36305113 -142 7 C-143.18078125 7.41765625 -144.3615625 7.8353125 -145.578125 8.265625 C-166.73734017 16.23468006 -185.3443116 27.75880743 -202 43 C-202.76183594 43.64839844 -203.52367187 44.29679687 -204.30859375 44.96484375 C-216.30306121 55.31264485 -225.44506799 67.76585103 -234 81 C-234.69867188 82.0725 -235.39734375 83.145 -236.1171875 84.25 C-246.41641489 101.12584246 -253.30422182 120.61965311 -257 140 C-257.18328857 140.92796387 -257.36657715 141.85592773 -257.55541992 142.81201172 C-259.25897225 152.41935124 -259.35601397 161.90111694 -259.3125 171.625 C-259.31067719 172.4679361 -259.30885437 173.31087219 -259.30697632 174.17935181 C-259.26256199 186.36233312 -258.8577137 198.10786069 -256 210 C-255.83371094 210.75087891 -255.66742188 211.50175781 -255.49609375 212.27539062 C-245.18348252 258.52936171 -216.35588289 297.19732816 -176.76171875 322.66015625 C-137.67990304 347.21580931 -89.97300611 354.9504715 -45 344.93359375 C-20.43400711 339.03104973 3.1558851 328.78412447 23 313 C23.81041748 312.35877197 23.81041748 312.35877197 24.63720703 311.70458984 C61.87458378 281.92572174 85.4531185 239.81676692 91.1875 192.375 C95.1279486 155.83984857 87.23639668 120.26277581 70 88 C69.45730469 86.97390625 68.91460937 85.9478125 68.35546875 84.890625 C46.72702226 45.94889653 8.70993019 16.66470939 -33.8515625 4.2421875 C-35.83606932 3.69409328 -37.82303681 3.15482148 -39.8125 2.625 C-40.70606201 2.38620117 -41.59962402 2.14740234 -42.52026367 1.90136719 C-56.45783619 -1.59917352 -70.2708403 -2.40869581 -84.5625 -2.375 C-85.39460999 -2.37478851 -86.22671997 -2.37457703 -87.08404541 -2.37435913 C-100.39562262 -2.34068358 -113.08814091 -1.47789443 -126 2 Z " fill="#C9882D" transform="translate(340,123)"/>
<path d="M0 0 C0.7824559 -0.00701431 1.5649118 -0.01402863 2.37107849 -0.02125549 C4.88806956 -0.03869985 7.40482567 -0.04510936 9.921875 -0.046875 C10.77979645 -0.04754974 11.6377179 -0.04822449 12.52163696 -0.04891968 C24.82162936 -0.03351067 36.66604828 0.29790037 48.671875 3.203125 C49.83807373 3.46851074 49.83807373 3.46851074 51.02783203 3.73925781 C78.28297488 10.00269409 104.65016082 22.60699322 125.671875 41.203125 C126.64640625 42.05648437 127.6209375 42.90984375 128.625 43.7890625 C162.47037292 73.84179476 184.33517494 116.72641133 187.54296875 162.11328125 C189.63255262 212.19997331 174.04768162 258.60012727 139.9921875 295.71484375 C138.84363281 296.94654297 138.84363281 296.94654297 137.671875 298.203125 C136.94742187 298.99332031 136.22296875 299.78351563 135.4765625 300.59765625 C110.63468806 326.66057198 75.05050356 343.76025907 39.671875 349.203125 C37.74794922 349.50863281 37.74794922 349.50863281 35.78515625 349.8203125 C-9.41751369 356.39435652 -56.19323488 344.0094269 -92.80859375 316.91015625 C-130.53296286 288.29275974 -154.18964934 248.77842685 -162.328125 202.203125 C-163.12408298 196.39463135 -163.50433989 190.64456775 -163.56640625 184.78515625 C-163.57615479 184.01364227 -163.58590332 183.2421283 -163.59594727 182.44723511 C-163.76463328 165.65137994 -163.61289348 149.56058955 -159.328125 133.203125 C-159.14620605 132.46481445 -158.96428711 131.72650391 -158.77685547 130.96582031 C-152.7555336 106.80519906 -141.23944484 84.31560866 -125.328125 65.203125 C-124.86825195 64.63787109 -124.40837891 64.07261719 -123.93457031 63.49023438 C-112.94290475 49.99065325 -100.82106645 38.84552168 -86.328125 29.203125 C-85.32652344 28.52765625 -84.32492188 27.8521875 -83.29296875 27.15625 C-59.00417001 11.48605727 -29.17523407 0.17453918 0 0 Z M-21.328125 18.203125 C-22.10526855 18.36409668 -22.88241211 18.52506836 -23.68310547 18.69091797 C-64.50145488 27.48295226 -100.38283868 53.27391386 -123.00244141 88.12402344 C-146.60255751 125.13665488 -153.63323724 168.39974749 -144.89013672 211.35498047 C-143.95529074 215.39769758 -142.70492387 219.29208279 -141.328125 223.203125 C-141.11816895 223.82026367 -140.90821289 224.43740234 -140.69189453 225.07324219 C-133.71585442 245.46942048 -123.53490026 263.93331967 -109.328125 280.203125 C-108.48507813 281.18023437 -107.64203125 282.15734375 -106.7734375 283.1640625 C-83.87828247 309.22440764 -52.26572526 326.43137164 -18.29443359 332.82861328 C-16.58792073 333.15364317 -14.88875668 333.5168105 -13.19140625 333.88671875 C25.35912148 341.34977151 68.64192963 330.24903807 100.98828125 308.80859375 C106.92511261 304.70709406 112.30324646 300.01000301 117.671875 295.203125 C118.53167969 294.47609375 119.39148438 293.7490625 120.27734375 293 C146.00425951 270.91329966 163.3143492 238.33126379 169.31347656 205.17578125 C169.63258607 203.41937471 169.98946629 201.66992567 170.3515625 199.921875 C173.75030089 181.11241873 172.59439384 160.83411568 168.671875 142.203125 C168.51090332 141.42598145 168.34993164 140.64883789 168.18408203 139.84814453 C159.40398249 99.085204 133.56407406 63.17824749 98.796875 40.515625 C80.6409517 29.01500934 60.73239054 21.33972306 39.671875 17.203125 C38.60839844 16.97753906 37.54492188 16.75195312 36.44921875 16.51953125 C17.61555109 13.13553892 -2.67483263 14.27591082 -21.328125 18.203125 Z " fill="#3D3B40" transform="translate(244.328125,120.796875)"/>
<path d="M0 0 C2.61969454 29.80630227 -11.93639539 61.93971335 -30.6953125 84.45751953 C-31.12585938 84.96653809 -31.55640625 85.47555664 -32 86 C-32.43570313 86.51546387 -32.87140625 87.03092773 -33.3203125 87.56201172 C-55.48094134 113.42417835 -88.79167219 131.22259855 -123 134 C-126.6765235 134.12447722 -130.32421563 134.10846714 -134 134 C-132.5046078 124.11482733 -130.40427047 114.40312284 -128.2265625 104.65234375 C-127.85755653 102.98871967 -127.48885965 101.32502701 -127.12045288 99.66127014 C-126.15475121 95.30332327 -125.1854974 90.94617485 -124.215271 86.5892334 C-122.66944647 79.64477135 -121.12905053 72.69910351 -119.58872604 65.75341988 C-119.0582095 63.36359548 -118.52614928 60.97411935 -117.99380493 58.58470154 C-117.82588629 57.82881021 -117.65796764 57.07291887 -117.48496056 56.29412174 C-117.15324525 54.80141419 -116.8203718 53.30896347 -116.48627663 51.81678677 C-115.59358724 47.80089364 -114.75202487 43.77990469 -113.96453857 39.74197388 C-113.79206793 38.87378556 -113.61959728 38.00559725 -113.44190025 37.1111002 C-113.11160975 35.43897305 -112.79060365 33.76497682 -112.48029518 32.08902645 C-111.69015921 28.1196561 -111.1590123 25.58770923 -108 23 C-105.29663086 22.15966797 -105.29663086 22.15966797 -101.96484375 21.4921875 C-100.70124023 21.23228027 -99.43763672 20.97237305 -98.13574219 20.70458984 C-97.11353577 20.50261993 -97.11353577 20.50261993 -96.07067871 20.29656982 C-93.8994372 19.86747783 -91.73128762 19.42508583 -89.56347656 18.97900391 C-86.40557844 18.32969627 -83.24676541 17.68510807 -80.08740234 17.04296875 C-71.12884104 15.21441576 -62.19019231 13.29094087 -53.25 11.375 C-52.34846191 11.18225494 -51.44692383 10.98950989 -50.51806641 10.79092407 C-38.97675751 8.32204522 -27.45727714 5.79447864 -15.99609375 2.97265625 C-13.05538196 2.25148689 -10.11121054 1.54882231 -7.16015625 0.87109375 C-6.07359741 0.62057251 -6.07359741 0.62057251 -4.96508789 0.36499023 C-3 0 -3 0 0 0 Z " fill="#C4852D" transform="translate(392,298)"/>
<path d="M0 0 C2.2476599 3.37148985 2.79798837 5.9237222 3.625 9.875 C3.88539063 11.08929688 4.14578125 12.30359375 4.4140625 13.5546875 C4.91001844 16.47090842 5.12312593 19.05617097 5 22 C6.010625 21.938125 7.02125 21.87625 8.0625 21.8125 C14.83310808 21.80045265 21.41717882 23.57514693 28 25 C28.84046875 25.1546875 29.6809375 25.309375 30.546875 25.46875 C57.22493394 30.53173929 83.00982397 50.37125482 98.34155273 72.30273438 C107.05866601 85.32648528 113.38009618 98.75968029 117 114 C117.31710937 115.27230469 117.63421875 116.54460937 117.9609375 117.85546875 C119.48535239 124.37968478 120.34630308 130.30480719 120 137 C120.58265625 137.03738281 121.1653125 137.07476562 121.765625 137.11328125 C128.7343058 137.67209056 135.26455965 139.15990547 142 141 C142 141.33 142 141.66 142 142 C105.7 142 69.4 142 32 142 C31.01 138.04 30.02 134.08 29 130 C24.48930909 120.76382337 19.31893798 116.00461659 9.8125 112.1875 C5.6885434 110.80792616 5.6885434 110.80792616 0 110 C0 73.7 0 37.4 0 0 Z " fill="#FDDD74" transform="translate(256,154)"/>
<path d="M0 0 C36.63 0.33 73.26 0.66 111 1 C111.99 4.96 112.98 8.92 114 13 C115.48676051 15.79330763 117.11838511 18.11165533 118.98828125 20.6484375 C120 23 120 23 118.99533081 25.72737122 C117.80897857 29.62807482 118.19972773 31.75663423 119.08642578 35.71362305 C119.22601212 36.35697601 119.36559845 37.00032898 119.50941467 37.66317749 C119.97319285 39.78295232 120.45912102 41.89698254 120.9453125 44.01171875 C121.2763 45.50431192 121.60585426 46.99722356 121.93405151 48.49043274 C122.80314821 52.42691256 123.69094045 56.35894044 124.58294678 60.2902832 C125.47221541 64.22305143 126.34508298 68.15944507 127.21875 72.09570312 C128.39216639 77.37603344 129.56904409 82.65556194 130.75165939 87.9338398 C132.35752787 95.10270259 133.95584097 102.2728893 135.4921875 109.45703125 C135.65276642 110.19434982 135.81334534 110.9316684 135.97879028 111.69132996 C136.6586393 114.91047363 137 117.68378341 137 121 C130.45491386 121.2685557 124.6739611 120.31112666 118.3125 118.8125 C117.33643799 118.58401367 116.36037598 118.35552734 115.35473633 118.12011719 C83.39424307 110.40395991 57.05428373 90.93030007 39.80859375 63.07568359 C29.60933345 46.09795451 22.66526963 25.97224524 23 6 C22.14341797 5.94392578 22.14341797 5.94392578 21.26953125 5.88671875 C13.99390548 5.29680315 7.07433492 3.76303958 0 2 C0 1.34 0 0.68 0 0 Z " fill="#FCB30B" transform="translate(113,295)"/>
<path d="M0 0 C9.60868976 8.7761679 16.77660456 19.17141893 17.53515625 32.54296875 C17.90469377 47.55636558 15.72764798 59.53267823 5.1640625 70.9765625 C4.8340625 71.3065625 4.5040625 71.6365625 4.1640625 71.9765625 C1.67320214 71.88525642 -0.78939988 71.73498003 -3.2734375 71.546875 C-11.71248432 70.9802718 -20.10935017 70.8225304 -28.56542969 70.84619141 C-30.83535431 70.85156112 -33.10508119 70.84619522 -35.375 70.83984375 C-41.46935043 70.83922856 -47.53398815 70.84927751 -53.61425781 71.30688477 C-54.77501831 71.39288437 -54.77501831 71.39288437 -55.95922852 71.48062134 C-57.43326987 71.59734075 -58.90630713 71.72784334 -60.37768555 71.87435913 C-63.42871775 72.12151056 -65.39701102 72.2203164 -68.11230469 70.71240234 C-69.82268317 68.91531481 -70.76941896 67.21546722 -71.8359375 64.9765625 C-72.2896875 64.16832031 -72.7434375 63.36007813 -73.2109375 62.52734375 C-80.39065728 49.20814768 -81.19536807 35.71777234 -77.0546875 21.24609375 C-74.77280861 14.902077 -71.25589338 10.01719304 -66.8359375 4.9765625 C-66.31257812 4.3475 -65.78921875 3.7184375 -65.25 3.0703125 C-48.94364474 -15.06553628 -18.09741581 -15.02788945 0 0 Z " fill="#CB892E" transform="translate(286.8359375,18.0234375)"/>
<path d="M0 0 C36.3 0 72.6 0 110 0 C106.43553593 1.78223204 103.82345441 2.60133477 99.98046875 3.41015625 C98.75094482 3.673125 97.5214209 3.93609375 96.25463867 4.20703125 C95.59483002 4.3457666 94.93502136 4.48450195 94.25521851 4.62744141 C90.64671923 5.38668819 87.04208529 6.16382138 83.4375 6.94140625 C82.67330246 7.10601349 81.90910492 7.27062073 81.12174988 7.44021606 C73.10495348 9.17665557 65.12207331 11.05312039 57.13635254 12.92623901 C36.22818296 17.82497906 15.20401186 22.55225869 -6 26 C-6.16386452 26.89471008 -6.16386452 26.89471008 -6.33103943 27.80749512 C-9.93764255 47.34922349 -14.17607011 66.72594031 -18.52716064 86.11254883 C-19.42254029 90.10567052 -20.31363616 94.09974775 -21.20507812 98.09375 C-22.55148318 104.12416141 -23.89996495 110.15410335 -25.25048828 116.18359375 C-27.17733229 124.78677037 -29.09268604 133.39247416 -31 142 C-31.66 142 -32.32 142 -33 142 C-37.02508877 125.02766279 -40.76124613 108.00121128 -44.37597656 90.9375 C-46.48090233 81.01445401 -48.63970993 71.10637172 -50.87109375 61.2109375 C-51.57923387 58.04622205 -52.28622721 54.88125273 -52.99279785 51.71618652 C-53.45413271 49.66340447 -53.92032431 47.61170759 -54.39147949 45.56115723 C-55.04797836 42.70222564 -55.68774981 39.84000894 -56.32421875 36.9765625 C-56.52470322 36.12436127 -56.72518768 35.27216003 -56.93174744 34.39413452 C-57.1033992 33.60745392 -57.27505096 32.82077332 -57.4519043 32.01025391 C-57.6068486 31.3286319 -57.76179291 30.64700989 -57.9214325 29.94473267 C-58.02103262 27.4793925 -57.23928077 26.09614174 -56 24 C-52.32192007 24 -50.7297727 25.11105374 -47.5625 26.9375 C-40.36649392 31.07887493 -34.29481073 31.88138485 -26 31 C-17.71986698 28.53273748 -10.49087114 25.06700186 -5.875 17.5 C-5.15957031 16.37078125 -5.15957031 16.37078125 -4.4296875 15.21875 C-2.28496743 10.39019989 -1.28142201 5.12568805 0 0 Z " fill="#FDB40B" transform="translate(288,296)"/>
<path d="M0 0 C5.90097903 4.30279721 10.70822181 12.82235906 12.125 19.90625 C13.26172552 30.30806708 10.82377963 39.32759353 4.5625 47.78125 C-0.4064509 53.08840174 -9.19642232 57.47186151 -16.44140625 58.14453125 C-26.39581325 58.39112021 -34.22136751 55.98981519 -42.0546875 49.7421875 C-48.45829725 43.28361114 -51.88457558 35.13198732 -52.25 26.15625 C-52.06667788 16.89848283 -48.48696836 8.46194629 -41.875 1.90625 C-28.08514719 -8.20031965 -14.75582756 -8.60756607 0 0 Z " fill="#C8872D" transform="translate(275.875,270.09375)"/>
<path d="M0 0 C-0.99 5.28 -1.98 10.56 -3 16 C-4.19753906 16.17015625 -5.39507812 16.3403125 -6.62890625 16.515625 C-41.17965672 21.58749113 -70.57387823 35.47866336 -93 63 C-108.17460874 83.77987187 -113.94483106 105.93560475 -118 131 C-123.28 131.99 -128.56 132.98 -134 134 C-135.58674602 100.67833357 -120.25948865 67.62471652 -98.1875 43.3125 C-73.41153528 16.95340654 -36.76694358 -1.75080684 0 0 Z " fill="#3E3C3F" transform="translate(254,160)"/>
<path d="M0 0 C2.61969454 29.80630227 -11.93639539 61.93971335 -30.6953125 84.45751953 C-31.12585938 84.96653809 -31.55640625 85.47555664 -32 86 C-32.43570313 86.51546387 -32.87140625 87.03092773 -33.3203125 87.56201172 C-55.48094134 113.42417835 -88.79167219 131.22259855 -123 134 C-126.67489411 134.12442205 -130.32562259 134.13254267 -134 134 C-133.68954268 132.0830014 -133.37655329 130.16641277 -133.0625 128.25 C-132.88847656 127.18265625 -132.71445312 126.1153125 -132.53515625 125.015625 C-132.11246943 122.63376932 -131.60239984 120.33898839 -131 118 C-129.77667969 117.85304688 -128.55335938 117.70609375 -127.29296875 117.5546875 C-93.03913144 113.1267608 -62.76398703 98.4123539 -41 71 C-26.25160144 50.48699896 -18.99645719 27.94419186 -16 3 C-13.89679937 2.49595192 -11.79240209 1.99689492 -9.6875 1.5 C-8.51574219 1.2215625 -7.34398437 0.943125 -6.13671875 0.65625 C-3 0 -3 0 0 0 Z " fill="#3E3C3F" transform="translate(392,298)"/>
<path d="M0 0 C5.28 0.99 10.56 1.98 16 3 C16.12375 4.1653125 16.2475 5.330625 16.375 6.53125 C20.35742822 39.66217393 34.69602756 70.4969057 61.13671875 91.55078125 C75.20985916 102.2863277 90.78868709 109.95003038 108 114 C109.27230469 114.30550781 110.54460937 114.61101562 111.85546875 114.92578125 C118.22126737 116.3654206 124.49838413 117.43951587 131 118 C131.50404808 120.10320063 132.00310508 122.20759791 132.5 124.3125 C132.7784375 125.48425781 133.056875 126.65601563 133.34375 127.86328125 C134 131 134 131 134 134 C102.29668225 136.08269971 69.7446754 121.11010946 46.19140625 100.75 C20.29683617 77.71705012 2.6845954 44.85499697 0 10 C-0.11935147 6.6453712 -0.10175204 3.35781721 0 0 Z " fill="#3E3C3F" transform="translate(120,298)"/>
<path d="M0 0 C30.8166423 -0.82177713 62.8532916 11.76042986 86 32 C86.96550781 32.83273438 87.93101562 33.66546875 88.92578125 34.5234375 C114.14043885 56.66578853 131.49870556 89.47800528 134.171875 123.16601562 C134.31291383 126.78718764 134.23748145 130.38500459 134 134 C132.0830014 133.68954268 130.16641277 133.37655329 128.25 133.0625 C127.18265625 132.88847656 126.1153125 132.71445312 125.015625 132.53515625 C122.63376932 132.11246943 120.33898839 131.60239984 118 131 C117.82984375 129.80246094 117.6596875 128.60492188 117.484375 127.37109375 C112.49327841 93.37056446 99.1548067 62.37902558 71.10571289 41.13623047 C50.19060718 25.89466803 28.33072527 19.52928089 3 16 C2.01 10.72 1.02 5.44 0 0 Z " fill="#3E3C3F" transform="translate(258,160)"/>
<path d="M0 0 C9.60868976 8.7761679 16.77660456 19.17141893 17.53515625 32.54296875 C17.87004193 46.26234674 16.27038915 58.04897052 7.1640625 68.9765625 C6.57238281 68.57824219 5.98070312 68.17992188 5.37109375 67.76953125 C1.35419614 65.07630952 -2.65161255 62.40617053 -6.8359375 59.9765625 C-6.56007813 59.42871094 -6.28421875 58.88085938 -6 58.31640625 C-5.61585938 57.54425781 -5.23171875 56.77210937 -4.8359375 55.9765625 C-4.41054688 55.13222656 -3.98515625 54.28789063 -3.546875 53.41796875 C0.28740534 45.15520674 1.93301051 37.40011671 -0.53515625 28.4375 C-4.02826247 19.85949232 -9.39159358 12.98141679 -17.8359375 8.9765625 C-26.07289311 5.76516394 -35.51210547 5.67400258 -43.78125 8.9453125 C-52.25983885 13.20072592 -57.09287165 19.36574598 -61.2109375 27.7890625 C-63.04170881 37.1259962 -62.03998382 45.42786631 -57.8359375 53.9765625 C-56.83746327 55.3110388 -55.83777373 56.64460832 -54.8359375 57.9765625 C-54.8359375 58.6365625 -54.8359375 59.2965625 -54.8359375 59.9765625 C-57.13671875 61.6328125 -57.13671875 61.6328125 -60.1484375 63.4765625 C-61.13457031 64.085 -62.12070313 64.6934375 -63.13671875 65.3203125 C-64.02746094 65.866875 -64.91820312 66.4134375 -65.8359375 66.9765625 C-67.3209375 67.9665625 -67.3209375 67.9665625 -68.8359375 68.9765625 C-77.57238445 57.44445253 -81.01212068 44.75267004 -79.1484375 30.4140625 C-77.30674539 20.17570835 -73.68198106 12.78396537 -66.8359375 4.9765625 C-66.31257812 4.3475 -65.78921875 3.7184375 -65.25 3.0703125 C-48.94364474 -15.06553628 -18.09741581 -15.02788945 0 0 Z " fill="#FEAE3E" transform="translate(286.8359375,18.0234375)"/>
<path d="M0 0 C0.76490784 1.95788574 0.76490784 1.95788574 1.31860352 4.56054688 C1.53214981 5.53245972 1.74569611 6.50437256 1.9657135 7.5057373 C2.18456711 8.56603149 2.40342072 9.62632568 2.62890625 10.71875 C2.86407455 11.80579224 3.09924286 12.89283447 3.34153748 14.01281738 C4.09430272 17.50601085 4.82863374 21.00279238 5.5625 24.5 C6.06063092 26.82838592 6.55996522 29.15651474 7.06054688 31.484375 C8.19011088 36.7456966 9.30658489 42.00964232 10.41531372 47.27539062 C11.11975381 50.55804688 11.8697746 53.82926252 12.63804626 57.09753418 C13.14230573 59.74797348 13.13776829 62.31351832 13 65 C-0.53099153 64.14088943 -13.79169969 60.93109435 -26 55 C-26.89332031 54.5666333 -26.89332031 54.5666333 -27.8046875 54.12451172 C-36.33575008 49.93079805 -43.8198311 45.29884853 -51 39 C-51.71414062 38.39414062 -52.42828125 37.78828125 -53.1640625 37.1640625 C-54.78599304 35.7876832 -56.3947856 34.39583861 -58 33 C-54.47349941 30.05163424 -50.88603297 27.64296022 -46.90625 25.34765625 C-46.03569473 24.84224052 -46.03569473 24.84224052 -45.14755249 24.32661438 C-43.26701699 23.23511465 -41.3835654 22.14876124 -39.5 21.0625 C-29.27932212 15.14594125 -19.15965906 9.11832496 -9.25976562 2.67211914 C-8.07543945 1.91789673 -8.07543945 1.91789673 -6.8671875 1.1484375 C-6.18769043 0.70677246 -5.50819336 0.26510742 -4.80810547 -0.18994141 C-3 -1 -3 -1 0 0 Z " fill="#3D3C3F" transform="translate(235,343)"/>
<path d="M0 0 C4.2106273 1.53014681 7.95995597 3.62964766 11.78515625 5.9296875 C12.4351207 6.31663284 13.08508514 6.70357819 13.75474548 7.10224915 C15.85940478 8.35639276 17.96097697 9.61560946 20.0625 10.875 C21.50568282 11.73637987 22.94904296 12.59746269 24.39257812 13.45825195 C28.59789252 15.96743412 32.79923247 18.48321573 37 21 C38.15214345 21.6896786 39.3043219 22.37929873 40.45654297 23.06884766 C45.97516757 26.37237817 51.49001134 29.68208615 57 33 C43.84137958 50.57593507 18.46304577 61.50001053 -2.75 64.8046875 C-6.49271776 65.31742169 -10.23468346 65.69877468 -14 66 C-13.48197545 57.85269005 -12.11560701 50.10232541 -10.3125 42.1484375 C-10.04993408 40.96778717 -9.78736816 39.78713684 -9.5168457 38.57070923 C-8.9653569 36.09767527 -8.41054216 33.62538084 -7.85253906 31.15380859 C-6.99504238 27.35302575 -6.14908704 23.54980548 -5.3046875 19.74609375 C-4.76629595 17.33839154 -4.22725699 14.93083398 -3.6875 12.5234375 C-3.43331299 11.3819223 -3.17912598 10.2404071 -2.91723633 9.06430054 C-2.68029053 8.01876007 -2.44334473 6.9732196 -2.19921875 5.89599609 C-1.99127686 4.97209076 -1.78333496 4.04818542 -1.5690918 3.09628296 C-1 1 -1 1 0 0 Z " fill="#3D3C40" transform="translate(278,342)"/>
<path d="M0 0 C20.22500814 15.18662272 29.39840957 43.01668189 33 67 C33 68.32 33 69.64 33 71 C26.25410668 70.35851935 19.74751587 69.23303464 13.125 67.8125 C12.1035791 67.5961792 11.0821582 67.3798584 10.02978516 67.15698242 C6.68499049 66.44493166 3.34225546 65.72387259 0 65 C-1.20462891 64.73960937 -2.40925781 64.47921875 -3.65039062 64.2109375 C-7.30983132 63.41699881 -10.96772772 62.61636437 -14.625 61.8125 C-15.7682373 61.56282471 -16.91147461 61.31314941 -18.08935547 61.0559082 C-19.16588379 60.81702881 -20.24241211 60.57814941 -21.3515625 60.33203125 C-22.77202881 60.01842651 -22.77202881 60.01842651 -24.22119141 59.69848633 C-27.20757777 58.94782288 -30.09118679 58.00743346 -33 57 C-31.46985319 52.7893727 -29.37035234 49.04004403 -27.0703125 45.21484375 C-26.68336716 44.5648793 -26.29642181 43.91491486 -25.89775085 43.24525452 C-24.64360724 41.14059522 -23.38439054 39.03902303 -22.125 36.9375 C-21.26362013 35.49431718 -20.40253731 34.05095704 -19.54174805 32.60742188 C-17.03256588 28.40210748 -14.51678427 24.20076753 -12 20 C-11.3103214 18.84785655 -10.62070127 17.6956781 -9.93115234 16.54345703 C-6.62762183 11.02483243 -3.31791385 5.50998866 0 0 Z " fill="#3D3C40" transform="translate(335,217)"/>
<path d="M0 0 C-1.61939894 23.36561328 -10.38932294 46.38708393 -26 64 C-27.00338535 65.20552366 -28.00389914 66.41345036 -29 67.625 C-29.66 68.40875 -30.32 69.1925 -31 70 C-35.021399 68.65953367 -35.9923635 66.14100439 -37.9921875 62.640625 C-38.37502899 61.98787094 -38.75787048 61.33511688 -39.15231323 60.6625824 C-40.40138083 58.52971024 -41.63824718 56.39003236 -42.875 54.25 C-44.58198076 51.32189847 -46.29459847 48.39711406 -48.0078125 45.47265625 C-48.43231689 44.74621414 -48.85682129 44.01977203 -49.29418945 43.27131653 C-53.49508989 36.10472704 -57.89643821 29.07031867 -62.42919922 22.10839844 C-62.92178223 21.33399414 -63.41436523 20.55958984 -63.921875 19.76171875 C-64.35081055 19.10131592 -64.77974609 18.44091309 -65.22167969 17.76049805 C-66 16 -66 16 -65 13 C-62.55761719 12.18798828 -62.55761719 12.18798828 -59.296875 11.5703125 C-58.09836914 11.33473633 -56.89986328 11.09916016 -55.66503906 10.85644531 C-54.37307617 10.61506836 -53.08111328 10.37369141 -51.75 10.125 C-49.09253835 9.60766594 -46.43697393 9.08085893 -43.78125 8.5546875 C-43.11748352 8.42449219 -42.45371704 8.29429687 -41.76983643 8.16015625 C-34.27743327 6.68181389 -26.86975106 4.89118143 -19.453125 3.078125 C-17.96883132 2.71841428 -16.48445668 2.35903746 -15 2 C-13.83114258 1.71092773 -13.83114258 1.71092773 -12.63867188 1.41601562 C-8.33006669 0.39186844 -4.46509304 -0.22897913 0 0 Z " fill="#3D3B3F" transform="translate(368,304)"/>
<path d="M0 0 C2.94836576 3.52650059 5.35703978 7.11396703 7.65234375 11.09375 C7.98924225 11.6741655 8.32614075 12.25458099 8.67324829 12.85258484 C9.3927799 14.0924561 10.11063465 15.33330179 10.82693481 16.57504272 C12.70633226 19.83262709 14.59768103 23.08321511 16.4921875 26.33203125 C16.87119705 26.98198563 17.2502066 27.63194 17.64070129 28.30158997 C21.69745566 35.23250561 25.93385279 42.04960912 30.23999023 48.828125 C30.73958252 49.62089844 31.2391748 50.41367187 31.75390625 51.23046875 C32.19033447 51.91520264 32.6267627 52.59993652 33.07641602 53.30541992 C34 55 34 55 34 57 C22.66847921 59.8981094 11.29741028 62.54850561 -0.125 65.0625 C-1.66801046 65.40410853 -3.21097932 65.74590503 -4.75390625 66.08789062 C-13.82799836 68.09619806 -22.90972043 70.06615015 -32 72 C-31.17134018 56.28195025 -27.0255124 42.02223172 -20 28 C-19.69578125 27.39027344 -19.3915625 26.78054687 -19.078125 26.15234375 C-14.10567369 16.39706851 -7.75102202 7.75102202 0 0 Z " fill="#3D3B3F" transform="translate(176,217)"/>
<path d="M0 0 C23.33255746 1.61710794 46.43384766 10.36743533 64 26 C65.37421814 27.16758752 66.74914337 28.33434369 68.125 29.5 C69.07375 30.325 70.0225 31.15 71 32 C67.47349941 34.94836576 63.88603297 37.35703978 59.90625 39.65234375 C59.3258345 39.98924225 58.74541901 40.32614075 58.14741516 40.67324829 C56.9075439 41.3927799 55.66669821 42.11063465 54.42495728 42.82693481 C51.16737291 44.70633226 47.91678489 46.59768103 44.66796875 48.4921875 C44.01801437 48.87119705 43.36806 49.2502066 42.69841003 49.64070129 C35.76749439 53.69745566 28.95039088 57.93385279 22.171875 62.23999023 C21.37910156 62.73958252 20.58632813 63.2391748 19.76953125 63.75390625 C18.74243042 64.40854858 18.74243042 64.40854858 17.69458008 65.07641602 C16 66 16 66 14 66 C10.55309116 53.37195318 7.4979162 40.70106083 4.77758789 27.89697266 C4.17725258 25.07686216 3.56649887 22.25913186 2.95507812 19.44140625 C2.56709242 17.63034017 2.17969947 15.81914698 1.79296875 14.0078125 C1.52120064 12.7578801 1.52120064 12.7578801 1.24394226 11.48269653 C0.42470189 7.59161282 -0.23157794 4.00291801 0 0 Z " fill="#3D3B3F" transform="translate(264,184)"/>
<path d="M0 0 C5.82787154 0.64583383 11.46632876 1.65306247 17.1875 2.92578125 C18.47865723 3.20907539 18.47865723 3.20907539 19.79589844 3.49809265 C21.61154666 3.89730748 23.42680873 4.29828219 25.24169922 4.70092773 C27.96355873 5.30442022 30.68672449 5.90169477 33.41015625 6.49804688 C43.98661652 8.82482481 54.51182837 11.30285615 65 14 C63.46985319 18.2106273 61.37035234 21.95995597 59.0703125 25.78515625 C58.48989449 26.76010292 58.48989449 26.76010292 57.89775085 27.75474548 C56.64360724 29.85940478 55.38439054 31.96097697 54.125 34.0625 C53.26362013 35.50568282 52.40253731 36.94904296 51.54174805 38.39257812 C49.03256588 42.59789252 46.51678427 46.79923247 44 51 C43.3103214 52.15214345 42.62070127 53.3043219 41.93115234 54.45654297 C38.62762183 59.97516757 35.31791385 65.49001134 32 71 C14.5413974 57.92922319 4.55482711 33.58140397 0.3515625 12.79296875 C0.0043175 10.03430014 -0.10004728 7.40349879 -0.0625 4.625 C-0.05347656 3.75101562 -0.04445312 2.87703125 -0.03515625 1.9765625 C-0.02355469 1.32429688 -0.01195312 0.67203125 0 0 Z " fill="#3C3B3F" transform="translate(145,304)"/>
<path d="M0 0 C-0.71745425 6.9566685 -2.15435132 13.66968754 -3.6875 20.48828125 C-3.95006592 21.66843307 -4.21263184 22.8485849 -4.4831543 24.0644989 C-5.0361733 26.54672636 -5.59097586 29.02855706 -6.14746094 31.51000977 C-7.00085531 35.31631483 -7.84853891 39.12385777 -8.6953125 42.93164062 C-9.23404219 45.34642844 -9.77309345 47.76114454 -10.3125 50.17578125 C-10.69378052 51.88668694 -10.69378052 51.88668694 -11.08276367 53.63215637 C-11.31970947 54.68722885 -11.55665527 55.74230133 -11.80078125 56.8293457 C-12.00872314 57.75785843 -12.21666504 58.68637115 -12.4309082 59.64302063 C-13 62 -13 62 -14 65 C-18.2106273 63.46985319 -21.95995597 61.37035234 -25.78515625 59.0703125 C-26.4351207 58.68336716 -27.08508514 58.29642181 -27.75474548 57.89775085 C-29.85940478 56.64360724 -31.96097697 55.38439054 -34.0625 54.125 C-35.50568282 53.26362013 -36.94904296 52.40253731 -38.39257812 51.54174805 C-42.59789252 49.03256588 -46.79923247 46.51678427 -51 44 C-52.15214345 43.3103214 -53.3043219 42.62070127 -54.45654297 41.93115234 C-59.97516757 38.62762183 -65.49001134 35.31791385 -71 32 C-56.25769461 12.30874102 -24.2003978 -1.5055547 0 0 Z " fill="#3D3B3F" transform="translate(248,185)"/>
<path d="M0 0 C5.90153636 4.07144321 9.9686182 8.2753613 11.53125 15.43359375 C12.59761948 22.66234839 11.61846997 28.61563107 8 35 C3.15281389 40.86370417 -2.69768884 44.14354684 -10.15234375 45.34765625 C-17.34650166 45.84075319 -23.41809453 43.03257963 -28.859375 38.42578125 C-33.85603296 33.11992415 -35.59776854 27.16757275 -36.5 20.0625 C-36.22484235 14.06884868 -33.27265221 8.57495274 -29.35546875 4.13671875 C-20.63744481 -3.7941247 -10.48211076 -5.18627083 0 0 Z " fill="#FEFDFA" transform="translate(268,35)"/>
<path d="M0 0 C0 5.08314935 -1.88609542 7.51504423 -4.4921875 11.7578125 C-6.59985964 15.95679357 -6.59985964 15.95679357 -8 25 C-44.3 25 -80.6 25 -118 25 C-114.64310984 23.32155492 -112.23790014 22.47019991 -108.65014648 21.67480469 C-107.03951576 21.31367584 -107.03951576 21.31367584 -105.39634705 20.94525146 C-104.23301346 20.69003723 -103.06967987 20.434823 -101.87109375 20.171875 C-100.04458031 19.76464203 -100.04458031 19.76464203 -98.1811676 19.34918213 C-94.92576985 18.62437467 -91.66943039 17.90413026 -88.41253662 17.18609619 C-85.20583791 16.47804396 -82.00044666 15.76412628 -78.79492188 15.05078125 C-73.71555598 13.92113738 -68.63523028 12.79595713 -63.55419922 11.67382812 C-58.53245632 10.56376972 -53.51349399 9.44223429 -48.49658203 8.31054688 C-47.29300552 8.04002502 -46.08942902 7.76950317 -44.84938049 7.49078369 C-42.60117503 6.98508466 -40.35351452 6.4769533 -38.10655212 5.96575928 C-31.94407653 4.58300103 -25.78405419 3.40980983 -19.54452515 2.42906189 C-15.50620792 1.7481144 -11.62210001 0.61668449 -7.69140625 -0.51171875 C-4.79090487 -1.03793453 -2.82479773 -0.76387452 0 0 Z " fill="#FDDD73" transform="translate(232,271)"/>
<path d="M0 0 C0.82242188 0.48210937 1.64484375 0.96421875 2.4921875 1.4609375 C4.16667969 2.40839844 4.16667969 2.40839844 5.875 3.375 C6.96554688 4.00148438 8.05609375 4.62796875 9.1796875 5.2734375 C13.8636841 7.56295593 13.8636841 7.56295593 23 9 C23 45.3 23 81.6 23 119 C20.83047279 115.74570918 20.33100441 113.56293025 19.5546875 109.75390625 C19.4241095 109.12452148 19.29353149 108.49513672 19.15899658 107.84667969 C18.87521674 106.47624898 18.59432905 105.10521696 18.315979 103.7336731 C17.55273245 99.97580625 16.76713474 96.22259172 15.984375 92.46875 C15.82160065 91.68544815 15.65882629 90.9021463 15.49111938 90.09510803 C13.93542984 82.63195373 12.28496029 75.19134575 10.61572266 67.75289917 C9.61361508 63.27987233 8.62315228 58.80424811 7.63049316 54.32911682 C6.67203058 50.01209287 5.70759616 45.69648649 4.73632812 41.38232422 C3.64644884 36.53775981 2.57092255 31.69018091 1.50384521 26.84054565 C1.08676857 24.95657608 0.66481962 23.07367813 0.237854 21.19192505 C-0.35676975 18.56808411 -0.93420475 15.94100303 -1.5078125 13.3125 C-1.68959045 12.52878525 -1.87136841 11.7450705 -2.05865479 10.93760681 C-3.200703 5.58411653 -3.200703 5.58411653 -2.15576172 2.54296875 C-1 1 -1 1 0 0 Z " fill="#FDB40A" transform="translate(233,319)"/>
<path d="M0 0 C-3.69058243 20.15080122 -8.04165219 40.12703125 -12.52716064 60.11254883 C-13.42254029 64.10567052 -14.31363616 68.09974775 -15.20507812 72.09375 C-16.55148318 78.12416141 -17.89996495 84.15410335 -19.25048828 90.18359375 C-21.17733229 98.78677037 -23.09268604 107.39247416 -25 116 C-25.33 116 -25.66 116 -26 116 C-26 79.7 -26 43.4 -26 6 C-22.04 5.01 -18.08 4.02 -14 3 C-12.741875 2.2575 -11.48375 1.515 -10.1875 0.75 C-6.22929802 -1.4231305 -4.3352661 -0.80035682 0 0 Z " fill="#FEDE74" transform="translate(282,322)"/>
<path d="M0 0 C5.90097903 4.30279721 10.70822181 12.82235906 12.125 19.90625 C13.26172552 30.30806708 10.82377963 39.32759353 4.5625 47.78125 C-0.4064509 53.08840174 -9.19642232 57.47186151 -16.44140625 58.14453125 C-26.39581325 58.39112021 -34.22136751 55.98981519 -42.0546875 49.7421875 C-48.45829725 43.28361114 -51.88457558 35.13198732 -52.25 26.15625 C-52.06667788 16.89848283 -48.48696836 8.46194629 -41.875 1.90625 C-28.08514719 -8.20031965 -14.75582756 -8.60756607 0 0 Z M-40.2109375 12.58984375 C-44.19030227 18.12919424 -44.50342504 23.28751535 -43.875 29.90625 C-42.4130691 37.2026142 -37.91449976 42.92271906 -31.9921875 47.296875 C-26.15123181 50.65483333 -20.25099406 50.80388981 -13.7421875 49.46875 C-6.83891587 47.30301772 -1.04872343 42.42786003 2.625 36.21875 C5.17451638 30.35713869 5.13080707 23.76961492 3.53515625 17.640625 C0.77285456 11.17403855 -5.0586694 5.80210455 -11.296875 2.703125 C-23.70382338 -1.13174995 -32.22552041 3.44320067 -40.2109375 12.58984375 Z " fill="#9C6443" transform="translate(275.875,270.09375)"/>
<path d="M0 0 C5.01066488 -0.14168975 9.47519988 0.33751612 14.375 1.375 C15.36270386 1.58406982 15.36270386 1.58406982 16.37036133 1.79736328 C18.24742442 2.195815 20.1237365 2.59779989 22 3 C23.26263672 3.23203125 23.26263672 3.23203125 24.55078125 3.46875 C51.22902056 8.5410295 77.00764288 28.36813485 92.34155273 50.30273438 C101.05669996 63.32354791 107.38814721 76.75992548 111 92 C111.24121582 92.97356445 111.24121582 92.97356445 111.48730469 93.96679688 C113.1504216 100.72213773 114.41786934 107.035511 114 114 C110.7 113.67 107.4 113.34 104 113 C104.66 112.67 105.32 112.34 106 112 C101.51278433 88.3981113 95.3615598 66.33513316 79 48 C78.33742188 47.195625 77.67484375 46.39125 76.9921875 45.5625 C57.87662682 22.99062023 30.5467774 12.48873465 2 8 C1.67 8.66 1.34 9.32 1 10 C0.67 6.7 0.34 3.4 0 0 Z " fill="#C4852D" transform="translate(262,176)"/>
<path d="M0 0 C2.97 0.33 5.94 0.66 9 1 C9.06316406 1.98355469 9.12632812 2.96710938 9.19140625 3.98046875 C11.02876893 26.57035944 19.81642297 49.02839555 35 66 C35.70898438 66.83917969 36.41796875 67.67835938 37.1484375 68.54296875 C56.84936672 91.38913403 83.28207202 100.62302625 112 106 C112.33 105.34 112.66 104.68 113 104 C113.495 108.95 113.495 108.95 114 114 C107.45491386 114.2685557 101.6739611 113.31112666 95.3125 111.8125 C94.33643799 111.58401367 93.36037598 111.35552734 92.35473633 111.12011719 C60.39424307 103.40395991 34.05428373 83.93030007 16.80859375 56.07568359 C6.39642849 38.74355207 1.13795802 20.11166623 0 0 Z " fill="#C4852D" transform="translate(136,302)"/>
<path d="M0 0 C-0.33 3.3 -0.66 6.6 -1 10 C-2.464375 9.9175 -3.92875 9.835 -5.4375 9.75 C-19.4791078 9.80400618 -32.5998402 14.80151518 -45 21 C-45.60440918 21.29890137 -46.20881836 21.59780273 -46.83154297 21.90576172 C-72.75093667 34.98214888 -90.65060031 58.5809521 -100.28125 85.59375 C-102.99674874 94.56312462 -104.52365461 103.76165687 -106 113 C-108.64 113.33 -111.28 113.66 -114 114 C-111.01704789 79.73530015 -97.52897334 51.10405766 -72 28 C-52.98938359 12.27652188 -25.11105364 -1.50666322 0 0 Z " fill="#C4852D" transform="translate(250,176)"/>
<path d="M0 0 C3.92788198 1.45410209 7.41467245 3.30090967 11.0234375 5.421875 C11.59847519 5.75886917 12.17351288 6.09586334 12.76597595 6.44306946 C14.63783759 7.54170778 16.50651463 8.6456309 18.375 9.75 C19.66815502 10.51108466 20.96136847 11.27207006 22.25463867 12.03295898 C33.90944018 18.90184513 45.47632681 25.91335845 57 33 C57.33 32.01 57.66 31.02 58 30 C57.34240251 35.26770198 56.26735876 40.30133173 54.9375 45.4375 C54.75123047 46.16904297 54.56496094 46.90058594 54.37304688 47.65429688 C53.9186242 49.43703198 53.45977534 51.21863787 53 53 C49.92090233 53.86996586 46.83621369 54.71815852 43.75 55.5625 C42.44095703 55.9327832 42.44095703 55.9327832 41.10546875 56.31054688 C40.26113281 56.53935547 39.41679687 56.76816406 38.546875 57.00390625 C37.77182617 57.21861572 36.99677734 57.4333252 36.19824219 57.65454102 C33.80975982 58.0298967 32.279036 57.74681558 30 57 C30.99 57 31.98 57 33 57 C30.12731814 52.14445801 27.25174791 47.29063394 24.375 42.4375 C23.73405899 41.35562408 23.73405899 41.35562408 23.08016968 40.25189209 C18.63471604 32.75087385 14.18099412 25.25638224 9.62109375 17.82421875 C8.64873779 16.23879272 8.64873779 16.23879272 7.65673828 14.62133789 C6.44693922 12.65577477 5.23320118 10.69262949 4.01513672 8.73217773 C3.48033691 7.86407471 2.94553711 6.99597168 2.39453125 6.1015625 C1.92893799 5.35213379 1.46334473 4.60270508 0.98364258 3.83056641 C0 2 0 2 0 0 Z " fill="#EDA33A" transform="translate(177,217)"/>
<path d="M0 0 C5.26770198 0.65759749 10.30133173 1.73264124 15.4375 3.0625 C16.53481445 3.3419043 16.53481445 3.3419043 17.65429688 3.62695312 C19.43703198 4.0813758 21.21863787 4.54022466 23 5 C23.67449966 7.39387157 24.33976641 9.78969221 25 12.1875 C25.28617188 13.19780273 25.28617188 13.19780273 25.578125 14.22851562 C27.59371999 21.60703301 27.59371999 21.60703301 27 25 C24.92611558 26.68457594 23.12061458 27.87874101 20.80859375 29.15234375 C20.15984787 29.52957581 19.51110199 29.90680786 18.84269714 30.29547119 C16.71708168 31.52677697 14.57776911 32.73187752 12.4375 33.9375 C10.97655802 34.77771809 9.51676321 35.61993391 8.05810547 36.46411133 C5.8475602 37.74297522 3.63629106 39.02034994 1.4208374 40.29069519 C-6.24616369 44.68961021 -13.76135063 49.31900857 -21.26782227 53.98608398 C-22.13592529 54.52048096 -23.00402832 55.05487793 -23.8984375 55.60546875 C-24.64786621 56.07106201 -25.39729492 56.53665527 -26.16943359 57.01635742 C-28 58 -28 58 -30 58 C-28.54589791 54.07211802 -26.69909033 50.58532755 -24.578125 46.9765625 C-24.07263374 46.11400597 -24.07263374 46.11400597 -23.55693054 45.23402405 C-22.45829222 43.36216241 -21.3543691 41.49348537 -20.25 39.625 C-19.48891534 38.33184498 -18.72792994 37.03863153 -17.96704102 35.74536133 C-11.09815487 24.09055982 -4.08664155 12.52367319 3 1 C2.01 0.67 1.02 0.34 0 0 Z " fill="#EDA33A" transform="translate(207,317)"/>
<path d="M0 0 C2.53271484 0.421875 2.53271484 0.421875 4.63818359 3.02612305 C5.35115222 4.23429098 6.04381882 5.45457689 6.72021484 6.68359375 C7.29016426 7.66484726 7.29016426 7.66484726 7.87162781 8.66592407 C9.1092098 10.80433747 10.32073125 12.95636802 11.53271484 15.109375 C12.79835995 17.31232413 14.07008658 19.51168937 15.34196472 21.71104431 C16.19122025 23.18099462 17.03823371 24.65224253 17.88301086 26.12477112 C22.01459013 33.31497102 26.39687862 40.33312049 30.87451172 47.31323242 C31.36371094 48.08771729 31.85291016 48.86220215 32.35693359 49.66015625 C32.78063232 50.32055908 33.20433105 50.98096191 33.64086914 51.66137695 C34.53271484 53.421875 34.53271484 53.421875 34.53271484 56.421875 C30.74816422 55.74320727 27.89987993 54.0397931 24.60693359 52.09765625 C23.74225464 51.59004257 23.74225464 51.59004257 22.86010742 51.07217407 C20.97709358 49.96465766 19.0985852 48.84974573 17.22021484 47.734375 C15.92259454 46.96857735 14.62482303 46.20303587 13.3269043 45.43774414 C1.66011279 38.54598572 -9.9249489 31.51999366 -21.46728516 24.421875 C-21.40234863 23.83962158 -21.33741211 23.25736816 -21.27050781 22.6574707 C-21.18333496 21.87460693 -21.09616211 21.09174316 -21.00634766 20.28515625 C-20.91256836 19.46225098 -20.81878906 18.6393457 -20.72216797 17.79150391 C-20.5248487 15.95703947 -20.37331394 14.11761933 -20.24072266 12.27734375 C-19.76748904 9.10853433 -19.2643904 7.10008524 -17.46728516 4.421875 C-11.77442665 1.73431621 -6.15642178 1.05267137 0 0 Z " fill="#EDA33A" transform="translate(299.46728515625,317.578125)"/>
<path d="M0 0 C-1.45410209 3.92788198 -3.30090967 7.41467245 -5.421875 11.0234375 C-5.75886917 11.59847519 -6.09586334 12.17351288 -6.44306946 12.76597595 C-7.54170778 14.63783759 -8.6456309 16.50651463 -9.75 18.375 C-10.51108466 19.66815502 -11.27207006 20.96136847 -12.03295898 22.25463867 C-18.90184513 33.90944018 -25.91335845 45.47632681 -33 57 C-39.75710231 55.9413873 -46.39324562 54.77874156 -53 53 C-53.86996586 49.92090233 -54.71815852 46.83621369 -55.5625 43.75 C-55.80935547 42.87730469 -56.05621094 42.00460937 -56.31054688 41.10546875 C-56.53935547 40.26113281 -56.76816406 39.41679687 -57.00390625 38.546875 C-57.32597046 37.38430176 -57.32597046 37.38430176 -57.65454102 36.19824219 C-58.0298967 33.80975982 -57.74681558 32.279036 -57 30 C-57 30.99 -57 31.98 -57 33 C-52.14445801 30.12731814 -47.29063394 27.25174791 -42.4375 24.375 C-41.35562408 23.73405899 -41.35562408 23.73405899 -40.25189209 23.08016968 C-32.75087385 18.63471604 -25.25638224 14.18099412 -17.82421875 9.62109375 C-16.76726807 8.97285645 -15.71031738 8.32461914 -14.62133789 7.65673828 C-12.65577477 6.44693922 -10.69262949 5.23320118 -8.73217773 4.01513672 C-7.86407471 3.48033691 -6.99597168 2.94553711 -6.1015625 2.39453125 C-4.97741943 1.69614136 -4.97741943 1.69614136 -3.83056641 0.98364258 C-2 0 -2 0 0 0 Z " fill="#ECA33B" transform="translate(335,217)"/>
<path d="M0 0 C3.83897648 3.07440045 6.09741151 5.82653421 6.86328125 10.8046875 C7.08154644 16.28860036 6.61451356 20.48309819 3.05078125 24.8046875 C-0.29970206 28.38772364 -3.036498 29.71450547 -7.94921875 30.1171875 C-13.70048068 29.93545618 -17.71368049 28.07304769 -22.01171875 24.2421875 C-25.04212512 20.20833531 -25.39472661 15.7302922 -25.13671875 10.8046875 C-23.49595084 4.91722619 -21.01073611 2.18665873 -16.13671875 -1.1953125 C-10.91162435 -2.95500338 -4.83841291 -2.70668071 0 0 Z " fill="#FEAE3E" transform="translate(265.13671875,282.1953125)"/>
<path d="M0 0 C3.76323042 1.50529217 3.76323042 1.50529217 4.85470581 3.78582764 C6.31443686 6.60789394 8.19673549 8.43609759 10.44970703 10.67675781 C11.37051056 11.59741028 12.29131409 12.51806274 13.24002075 13.46661377 C14.24584465 14.4622253 15.2517778 15.45772648 16.2578125 16.453125 C17.28672149 17.47830193 18.31518837 18.50392275 19.3432312 19.52996826 C22.04481581 22.22393164 24.75235341 24.91183368 27.46118164 27.59851074 C30.22644489 30.34328304 32.98602633 33.09375472 35.74609375 35.84375 C41.15852274 41.23475573 46.57725438 46.61936964 52 52 C49.18034769 54.81965231 45.88680496 55.26535843 42.125 56.1875 C41.40441406 56.37763672 40.68382812 56.56777344 39.94140625 56.76367188 C36.23274128 57.68913063 33.64595873 58.12653757 30 57 C30.99 57 31.98 57 33 57 C30.12731814 52.14445801 27.25174791 47.29063394 24.375 42.4375 C23.73405899 41.35562408 23.73405899 41.35562408 23.08016968 40.25189209 C18.63471604 32.75087385 14.18099412 25.25638224 9.62109375 17.82421875 C8.64873779 16.23879272 8.64873779 16.23879272 7.65673828 14.62133789 C6.44693922 12.65577477 5.23320118 10.69262949 4.01513672 8.73217773 C3.48033691 7.86407471 2.94553711 6.99597168 2.39453125 6.1015625 C1.92893799 5.35213379 1.46334473 4.60270508 0.98364258 3.83056641 C0 2 0 2 0 0 Z " fill="#CF8F34" transform="translate(177,217)"/>
<path d="M0 0 C6.1241816 5.06500238 11.70715861 10.5782921 17.30859375 16.2109375 C18.28485986 17.18907267 19.26134994 18.16698435 20.23805237 19.14468384 C22.78672577 21.69714399 25.33237958 24.25259448 27.87738037 26.80871582 C30.48346618 29.42509914 33.09244621 32.03859303 35.70117188 34.65234375 C40.80359118 39.76543246 45.90281857 44.88168912 51 50 C47.15661695 50 45.47635358 48.72911835 42.171875 46.7734375 C41.59400742 46.43361343 41.01613983 46.09378937 40.42076111 45.7436676 C38.52659261 44.62725806 36.63826402 43.50136263 34.75 42.375 C33.44791393 41.604491 32.14558448 40.83439313 30.84301758 40.06469727 C19.16418267 33.15010652 7.56103956 26.10962051 -4 19 C-3.02614702 9.48939319 -3.02614702 9.48939319 -2 5 C-1.835 4.2575 -1.67 3.515 -1.5 2.75 C-1 1 -1 1 0 0 Z " fill="#CF8F34" transform="translate(282,323)"/>
<path d="M0 0 C0.66 0.33 1.32 0.66 2 1 C2.8515625 3.765625 2.8515625 3.765625 3.625 7.25 C4.01558594 8.95929688 4.01558594 8.95929688 4.4140625 10.703125 C5.43110345 16.42567544 5.43110345 16.42567544 5 19 C2.90342258 20.69502988 1.07227382 21.9030053 -1.26171875 23.1875 C-1.91602371 23.56746628 -2.57032867 23.94743256 -3.24446106 24.33891296 C-5.38284333 25.57628554 -7.53480131 26.78773744 -9.6875 28 C-11.15225835 28.84269664 -12.61579887 29.68751359 -14.078125 30.53442383 C-16.2801001 31.80948526 -18.48267436 33.08329766 -20.68930054 34.35029602 C-27.04242991 38.00019269 -33.28746817 41.80238338 -39.5 45.6875 C-40.37615967 46.23341797 -41.25231934 46.77933594 -42.1550293 47.34179688 C-44.10513849 48.55838611 -46.05360583 49.77747973 -48 51 C-48 48 -48 48 -46.17773438 45.81697083 C-45.32501953 44.97091782 -44.47230469 44.12486481 -43.59375 43.25317383 C-43.12557861 42.78456436 -42.65740723 42.3159549 -42.17504883 41.83314514 C-40.62370338 40.283892 -39.06199742 38.74553811 -37.5 37.20703125 C-36.4231763 36.13580193 -35.34701245 35.06390892 -34.27148438 33.99137878 C-31.43723182 31.16858742 -28.59408603 28.35491991 -25.74902344 25.54302979 C-22.84811303 22.67279274 -19.95566359 19.79405749 -17.0625 16.91601562 C-11.3832678 11.26897005 -5.69461678 5.63153082 0 0 Z " fill="#D08F34" transform="translate(229,323)"/>
<path d="M0 0 C0.66 0.33 1.32 0.66 2 1 C1.56357178 1.71728271 1.12714355 2.43456543 0.67749023 3.17358398 C-9.6067166 20.08106185 -19.83973634 37.017685 -30 54 C-31.91187215 53.69266749 -33.8232332 53.38215449 -35.734375 53.0703125 C-36.79881836 52.89773926 -37.86326172 52.72516602 -38.95996094 52.54736328 C-42.41369626 51.92551341 -45.65956014 51.06286723 -49 50 C-43.99744121 43.95734086 -38.56822676 38.43901957 -33.0078125 32.91015625 C-32.05209752 31.95631046 -31.09660612 31.00224059 -30.1413269 30.04795837 C-27.64805084 27.55846806 -25.15178475 25.07199776 -22.65484619 22.58618164 C-20.09878491 20.04042006 -17.54561495 17.49176223 -14.9921875 14.94335938 C-9.99758981 9.95942931 -4.99982201 4.97868952 0 0 Z " fill="#CF8F34" transform="translate(332,220)"/>
<path d="M0 0 C1.670625 0.7734375 1.670625 0.7734375 3.375 1.5625 C8.65070401 3.65458952 13.15985299 4.04385189 18.55078125 2.0625 C20.24595451 1.32166556 21.93999837 0.57824059 23.6328125 -0.16796875 C27.2171997 -1.42782762 29.38316695 -1.05490964 33 0 C33.66 0.66 34.32 1.32 35 2 C27.36404303 9.17176506 19.97908406 12.35953856 9.40234375 12.21875 C2.05133544 11.54938989 -5.10101703 8.47877956 -9.875 2.75 C-10.24625 2.1725 -10.6175 1.595 -11 1 C-7.19401096 -1.58807255 -4.36696466 -0.96221255 0 0 Z " fill="#B46903" transform="translate(244,76)"/>
<path d="M0 0 C2.57682379 0.53582347 3.80870067 1.01227323 5.9375 2.625 C7.34023464 6.27211005 7.14015813 9.37636026 5.875 13.0625 C3.75 15.125 3.75 15.125 0.875 16.0625 C-2.90154862 15.99738709 -5.17416906 15.89064308 -8.0625 13.375 C-9.4863395 10.2760552 -9.67653827 8.44067188 -9.125 5.0625 C-6.50620524 1.2161452 -4.62486834 -0.35838463 0 0 Z " fill="#FAAB3F" transform="translate(153.125,391.9375)"/>
<path d="M0 0 C1.80859375 0.6328125 1.80859375 0.6328125 3.87109375 2.1953125 C5.27134563 5.83596738 4.95545804 8.93299689 3.80859375 12.6328125 C1.55786169 15.30034679 0.26413836 15.57586942 -3.19140625 16.0078125 C-6.64695086 15.57586942 -7.94067419 15.30034679 -10.19140625 12.6328125 C-11.16195756 9.89869843 -11.50554648 7.52178072 -11.19140625 4.6328125 C-8.11917185 -0.22329993 -5.38026882 -1.11877045 0 0 Z " fill="#FBAB3F" transform="translate(363.19140625,184.3671875)"/>
<path d="M0 0 C2.0625 1.5625 2.0625 1.5625 3 4 C3.17821261 6.85140177 2.92914963 9.292848 2 12 C-0.93837168 14.85194898 -2.53597436 15 -6.625 15 C-10 14 -10 14 -12 11.875 C-13.30782688 8.11499772 -13.06090617 5.81926223 -12 2 C-8.81688665 -2.07438508 -4.54417813 -1.38635943 0 0 Z " fill="#FBAC3F" transform="translate(365,393)"/>
<path d="M0 0 C2.0625 1.5625 2.0625 1.5625 3 4 C3.17821261 6.85140177 2.92914963 9.292848 2 12 C-0.93837168 14.85194898 -2.53597436 15 -6.625 15 C-10 14 -10 14 -12 11.875 C-13.30782688 8.11499772 -13.06090617 5.81926223 -12 2 C-8.81688665 -2.07438508 -4.54417813 -1.38635943 0 0 Z " fill="#FBAB3F" transform="translate(157,185)"/>
<path d="M0 0 C5.00594787 1.54729298 8.48765608 4.70074395 12.4375 8.0625 C11.7775 9.3825 11.1175 10.7025 10.4375 12.0625 C0.09756789 11.47415035 -10.23418969 10.83180362 -20.5625 10.0625 C-20.5625 9.7325 -20.5625 9.4025 -20.5625 9.0625 C-19.58410156 8.80726562 -19.58410156 8.80726562 -18.5859375 8.546875 C-12.81236427 6.94594319 -4.93612471 0.12039329 0 0 Z " fill="#DD9835" transform="translate(280.5625,77.9375)"/>
<path d="M0 0 C1.69175663 1.30135125 3.35704805 2.63755204 5 4 C8.65370433 6.05520869 11.84805181 7.38941938 16 8 C16 8.33 16 8.66 16 9 C12.50056733 9.33947025 9.00037948 9.67044773 5.5 10 C4.51773438 10.09539062 3.53546875 10.19078125 2.5234375 10.2890625 C-3.01398367 10.80588848 -8.43881298 11.10592737 -14 11 C-14.66 9.68 -15.32 8.36 -16 7 C-14.5433323 5.85204994 -13.08461063 4.70670581 -11.625 3.5625 C-10.40683594 2.60537109 -10.40683594 2.60537109 -9.1640625 1.62890625 C-5.64073722 -1.0231274 -4.24143131 -1.28229319 0 0 Z " fill="#DE9836" transform="translate(235,79)"/>
</svg>
